<svg xmlns="http://www.w3.org/2000/svg" xmlns:xlink="http://www.w3.org/1999/xlink" width="400" height="400" viewBox="0 0 400 400">
  <defs>
    <clipPath id="clip-night">
      <rect width="400" height="400"/>
    </clipPath>
  </defs>
  <g id="night" clip-path="url(#clip-night)">
    <g id="Groupe_115" data-name="Groupe 115" transform="translate(-13321.823 593.76)">
      <path id="Soustraction_1" data-name="Soustraction 1" d="M79.5,275.169A137.521,137.521,0,0,1,0,250.018a139.688,139.688,0,0,0,45.558-1.681,137.452,137.452,0,0,0,25.932-8.05A138.16,138.16,0,0,0,94.956,227.55a138.908,138.908,0,0,0,37.314-37.314,138.166,138.166,0,0,0,12.737-23.466,137.451,137.451,0,0,0,8.05-25.932A139.169,139.169,0,0,0,155.864,113a138.7,138.7,0,0,0-4.175-33.842,137.4,137.4,0,0,0-11.846-30.793,138.6,138.6,0,0,0-18.5-26.724A139.06,139.06,0,0,0,97.213,0,137.609,137.609,0,0,1,165.17,28.641a138.866,138.866,0,0,1,32.28,36.428,137.281,137.281,0,0,1,17.805,46.239,139.545,139.545,0,0,1-.418,53.555,137.393,137.393,0,0,1-20.787,49.4,138.55,138.55,0,0,1-60.781,50.052,137.457,137.457,0,0,1-25.932,8.05A139.172,139.172,0,0,1,79.5,275.169Z" transform="translate(13408.18 -531.344)" fill="#fff"/>
      <path id="Tracé_71" data-name="Tracé 71" d="M0,0S12.318,6.167,24.2,6.167,47.536,0,47.536,0,41.55,11.63,41.55,23.514s5.986,24.021,5.986,24.021S35.874,41.074,23.99,41.074,0,47.536,0,47.536,6.642,35.611,6.642,23.727,0,0,0,0Z" transform="translate(13431.901 -488.857) rotate(45)" fill="#fff"/>
      <path id="Tracé_72" data-name="Tracé 72" d="M0,0S7.026,3.518,13.805,3.518,27.115,0,27.115,0,23.7,6.634,23.7,13.413s3.415,13.7,3.415,13.7-6.652-3.686-13.431-3.686S0,27.115,0,27.115s3.789-6.8,3.789-13.581S0,0,0,0Z" transform="translate(13388.998 -386.895) rotate(45)" fill="#fff"/>
    </g>
  </g>
</svg>
